# xmcd
#
# Track frame offsets: 
#        150
#        17237
#        41765
#        52974
#        66083
#        82372
#        98148
#        109169
#        131955
#        149328
#        162937
#        175083
#        192272
#        202074
#        218130
#        237478
#
# Disc length: 3333 seconds
#
# Revision: 0
# Processed by: cddbd v1.5.2PL0 Copyright (c) Steve Scherf et al.
# Submitted via: ExactAudioCopy v1.0b1
#
DISCID=f40d0310
DTITLE=Allisons' Icebreakers - Ain't No Sunshine In Heaven...
DYEAR=2014
DGENRE=Blues Rock
TTITLE0=Boogie Licks
TTITLE1=Big Bad Boss
TTITLE2=I Can't Get Enough Of Your Love
TTITLE3=Slowing Down On Christmas
TTITLE4=Nobody's Business But Mine
TTITLE5=Ain't No Sunshine In Heaven...
TTITLE6=Come Back Baby
TTITLE7=Hush Little Baby
TTITLE8=Sweet Talking Mama
TTITLE9=Hot Summer Day
TTITLE10=Lover Baby
TTITLE11=Work
TTITLE12=Ain't No Rain In Hell
TTITLE13=Spring Time
TTITLE14=Come On Baby
TTITLE15=Flatwound Number Two
EXTD=
EXTT0=
EXTT1=
EXTT2=
EXTT3=
EXTT4=
EXTT5=
EXTT6=
EXTT7=
EXTT8=
EXTT9=
EXTT10=
EXTT11=
EXTT12=
EXTT13=
EXTT14=
EXTT15=
PLAYORDER=
